<svg width="36" height="36" viewBox="0 0 36 36" fill="none" xmlns="http://www.w3.org/2000/svg">
<circle cx="18" cy="18" r="17" fill="white" stroke="#E5E5E5" stroke-width="2"/>
<path d="M22.7727 16H21.3636C21.2803 15.5947 21.1345 15.2386 20.9261 14.9318C20.7216 14.625 20.4716 14.3674 20.1761 14.1591C19.8845 13.947 19.5606 13.7879 19.2045 13.6818C18.8485 13.5758 18.4773 13.5227 18.0909 13.5227C17.3864 13.5227 16.7481 13.7008 16.1761 14.0568C15.608 14.4129 15.1553 14.9375 14.8182 15.6307C14.4848 16.3239 14.3182 17.1742 14.3182 18.1818C14.3182 19.1894 14.4848 20.0398 14.8182 20.733C15.1553 21.4261 15.608 21.9508 16.1761 22.3068C16.7481 22.6629 17.3864 22.8409 18.0909 22.8409C18.4773 22.8409 18.8485 22.7879 19.2045 22.6818C19.5606 22.5758 19.8845 22.4186 20.1761 22.2102C20.4716 21.9981 20.7216 21.7386 20.9261 21.4318C21.1345 21.1212 21.2803 20.7652 21.3636 20.3636H22.7727C22.6667 20.9583 22.4735 21.4905 22.1932 21.9602C21.9129 22.4299 21.5644 22.8295 21.1477 23.1591C20.7311 23.4848 20.2633 23.733 19.7443 23.9034C19.2292 24.0739 18.678 24.1591 18.0909 24.1591C17.0985 24.1591 16.2159 23.9167 15.4432 23.4318C14.6705 22.947 14.0625 22.2576 13.6193 21.3636C13.1761 20.4697 12.9545 19.4091 12.9545 18.1818C12.9545 16.9545 13.1761 15.8939 13.6193 15C14.0625 14.1061 14.6705 13.4167 15.4432 12.9318C16.2159 12.447 17.0985 12.2045 18.0909 12.2045C18.678 12.2045 19.2292 12.2898 19.7443 12.4602C20.2633 12.6307 20.7311 12.8807 21.1477 13.2102C21.5644 13.536 21.9129 13.9337 22.1932 14.4034C22.4735 14.8693 22.6667 15.4015 22.7727 16Z" fill="black"/>
</svg>
